<?xml version="1.0" encoding="UTF-8"?>
<svg id="Capa_2" data-name="Capa 2" xmlns="http://www.w3.org/2000/svg" viewBox="0 0 918.4 217.65">
  <defs>
    <style>
      .cls-1 {
        fill: #3244e2;
      }

      .cls-2 {
        fill: #5b53fa;
      }

      .cls-3 {
        fill: #4a3dff;
      }

      .cls-4 {
        fill: #112bbf;
      }

      .cls-5 {
        fill: #878bff;
      }

      .cls-6 {
        fill: #5a66f2;
      }

      .cls-7 {
        fill: #001fb8;
      }
    </style>
  </defs>
  <g id="logo-hor">
    <g id="logo">
      <g id="_Repetición_radial_" data-name="&amp;lt;Repetición radial&amp;gt;">
        <rect class="cls-3" x="65.81" y=".06" width="20.81" height="87.12" rx="3.52" ry="3.52" transform="translate(-.38 .67) rotate(-.5)"/>
      </g>
      <g id="_Repetición_radial_-2" data-name="&amp;lt;Repetición radial&amp;gt;">
        <rect class="cls-2" x="125.93" y="-.65" width="20.81" height="87.12" rx="3.52" ry="3.52" transform="translate(83.71 -89.98) rotate(50.93)"/>
      </g>
      <g id="_Repetición_radial_-3" data-name="&amp;lt;Repetición radial&amp;gt;">
        <rect class="cls-5" x="163.98" y="45.91" width="20.81" height="87.12" rx="3.52" ry="3.52" transform="translate(299.09 -61.73) rotate(102.36)"/>
      </g>
      <g id="_Repetición_radial_-4" data-name="&amp;lt;Repetición radial&amp;gt;">
        <rect class="cls-6" x="151.29" y="104.68" width="20.81" height="87.12" rx="3.52" ry="3.52" transform="translate(372.25 209.81) rotate(153.78)"/>
      </g>
      <g id="_Repetición_radial_-5" data-name="&amp;lt;Repetición radial&amp;gt;">
        <rect class="cls-1" x="97.43" y="131.41" width="20.81" height="87.12" rx="3.52" ry="3.52" transform="translate(130.86 379.21) rotate(-154.79)"/>
      </g>
      <g id="_Repetición_radial_-6" data-name="&amp;lt;Repetición radial&amp;gt;">
        <rect class="cls-4" x="42.96" y="105.97" width="20.81" height="87.12" rx="3.52" ry="3.52" transform="translate(-79.79 235.99) rotate(-103.36)"/>
      </g>
      <g id="_Repetición_radial_-7" data-name="&amp;lt;Repetición radial&amp;gt;">
        <rect class="cls-7" x="28.88" y="47.51" width="20.81" height="87.12" rx="3.52" ry="3.52" transform="translate(-56.63 65.84) rotate(-51.93)"/>
      </g>
    </g>
    <g id="sinergia-pbl">
      <path class="cls-7" d="M304.61,139.77c-4.93,0-9.65-.61-14.16-1.83-4.23-1.14-7.7-2.58-10.41-4.29-.3-.19-.41-.58-.27-.91l4.94-11.17c.18-.4.66-.55,1.03-.32,2.5,1.51,5.34,2.77,8.53,3.77,3.49,1.11,6.96,1.66,10.42,1.66,2.38,0,4.26-.2,5.65-.6,1.39-.4,2.41-.96,3.06-1.7.65-.74.98-1.62.98-2.64,0-1.3-.63-2.34-1.87-3.1-1.25-.77-2.88-1.42-4.89-1.96-2.01-.54-4.19-1.05-6.55-1.53-2.35-.48-4.75-1.12-7.18-1.91-2.44-.79-4.65-1.84-6.63-3.15-1.98-1.3-3.59-3-4.8-5.1-1.22-2.1-1.83-4.73-1.83-7.91,0-3.51.96-6.72,2.89-9.61,1.93-2.89,4.85-5.21,8.76-6.97,3.91-1.76,8.79-2.64,14.62-2.64,3.91,0,7.75.44,11.52,1.32,3.53.82,6.68,2.03,9.44,3.63.32.18.44.58.3.91l-4.55,11.08c-.16.4-.64.56-1.02.36-2.59-1.39-5.16-2.42-7.71-3.1-2.78-.74-5.47-1.11-8.08-1.11-2.33,0-4.19.26-5.61.77s-2.44,1.16-3.06,1.96c-.62.79-.94,1.65-.94,2.55,0,1.36.62,2.42,1.87,3.19,1.25.77,2.86,1.39,4.85,1.87,1.98.48,4.18.98,6.59,1.49s4.8,1.15,7.18,1.91c2.38.76,4.58,1.79,6.59,3.06,2.01,1.28,3.64,2.95,4.89,5.02,1.25,2.07,1.87,4.66,1.87,7.78,0,3.46-.98,6.65-2.93,9.56-1.96,2.92-4.89,5.26-8.8,7.01-3.91,1.76-8.81,2.64-14.71,2.64Z"/>
      <path class="cls-7" d="M338.79,137.86v-58.06c0-.4.33-.73.73-.73h15.38c.4,0,.73.33.73.73v58.06c0,.4-.33.73-.73.73h-15.38c-.4,0-.73-.33-.73-.73Z"/>
      <path class="cls-7" d="M407.66,79.79v28.95c0,.68-.85.99-1.29.46l-24.68-29.87c-.14-.17-.34-.26-.56-.26h-12.79c-.4,0-.73.33-.73.73v58.06c0,.4.33.73.73.73h14.95c.4,0,.73-.33.73-.73v-28.97c0-.68.85-.99,1.29-.46l24.77,29.9c.14.17.34.26.56.26h12.79c.4,0,.73-.33.73-.73v-58.06c0-.4-.33-.73-.73-.73h-15.04c-.4,0-.73.33-.73.73Z"/>
      <path class="cls-7" d="M452.72,124.76v-9.43c0-.4.33-.73.73-.73h24.99c.4,0,.73-.33.73-.73v-11.04c0-.4-.33-.73-.73-.73h-24.99c-.4,0-.73-.33-.73-.73v-8.49c0-.4.33-.73.73-.73h28.56c.4,0,.73-.33.73-.73v-11.64c0-.4-.33-.73-.73-.73h-45.14c-.4,0-.73.33-.73.73v58.06c0,.4.33.73.73.73h46.24c.4,0,.73-.33.73-.73v-11.64c0-.4-.33-.73-.73-.73h-29.66c-.4,0-.73-.33-.73-.73Z"/>
      <path class="cls-7" d="M530.39,138.58h16.26c.59,0,.93-.66.6-1.14l-11.6-16.9c-.25-.36-.11-.86.28-1.06,3.28-1.68,5.86-3.92,7.72-6.75,2.13-3.23,3.19-7.14,3.19-11.73s-1.06-8.38-3.19-11.69c-2.13-3.32-5.17-5.85-9.14-7.61-3.97-1.76-8.67-2.64-14.11-2.64h-26.4c-.4,0-.73.33-.73.73v58.06c0,.4.33.73.73.73h15.38c.4,0,.73-.33.73-.73v-14.36c0-.4.33-.73.73-.73h7.99c.24,0,.47.12.6.32l10.36,15.18c.14.2.36.32.6.32ZM527.29,94.67c1.76,1.56,2.64,3.67,2.64,6.34s-.88,4.93-2.64,6.46c-1.76,1.53-4.39,2.3-7.91,2.3h-8.54c-.4,0-.73-.33-.73-.73v-15.98c0-.4.33-.73.73-.73h8.54c3.51,0,6.15.78,7.91,2.34Z"/>
      <path class="cls-7" d="M595.9,123.43c0,.29-.17.56-.44.67-.42.18-.84.35-1.26.49-2.38.82-4.82,1.23-7.31,1.23s-4.78-.41-6.84-1.23c-2.07-.82-3.84-1.98-5.31-3.49-1.47-1.5-2.62-3.3-3.44-5.4-.82-2.1-1.23-4.39-1.23-6.89s.41-4.87,1.23-6.97c.82-2.1,1.97-3.9,3.44-5.4,1.47-1.5,3.26-2.65,5.36-3.44,2.1-.79,4.42-1.19,6.97-1.19,2.89,0,5.51.54,7.86,1.62,2.17.99,4.2,2.49,6.1,4.49.27.29.72.31,1.01.05l9.66-8.74c.29-.27.33-.73.07-1.02-2.82-3.25-6.32-5.76-10.51-7.53-4.42-1.87-9.41-2.81-14.97-2.81-4.87,0-9.32.75-13.35,2.25-4.02,1.5-7.52,3.63-10.5,6.38-2.98,2.75-5.29,6.02-6.93,9.82-1.64,3.8-2.47,7.97-2.47,12.5s.82,8.7,2.47,12.5c1.64,3.8,3.94,7.07,6.89,9.82,2.95,2.75,6.41,4.87,10.37,6.38,3.97,1.5,8.33,2.25,13.09,2.25,4.31,0,8.69-.65,13.14-1.96,4.31-1.26,8.16-3.06,11.54-5.39.2-.14.32-.37.32-.61v-23.54c0-.4-.33-.73-.73-.73h-13.51c-.4,0-.73.33-.73.73v15.16Z"/>
      <path class="cls-7" d="M621.67,137.86v-58.06c0-.4.33-.73.73-.73h15.38c.4,0,.73.33.73.73v58.06c0,.4-.33.73-.73.73h-15.38c-.4,0-.73-.33-.73-.73Z"/>
      <path class="cls-7" d="M695.45,138.58h15.91c.53,0,.88-.54.67-1.02l-25.71-58.06c-.12-.26-.38-.43-.67-.43h-15.63c-.29,0-.55.17-.67.43l-25.63,58.06c-.21.48.14,1.02.67,1.02h15.57c.3,0,.56-.18.68-.46l4.31-10.74c.11-.28.38-.46.68-.46h24.19c.3,0,.56.18.68.46l4.31,10.74c.11.28.38.46.68.46ZM684.93,113.61c.19.48-.16,1-.68,1h-13.12c-.52,0-.87-.52-.68-1l6.56-16.35c.24-.61,1.11-.61,1.35,0"/>
      <path class="cls-3" d="M792.44,89.31c-2.13-3.32-5.17-5.85-9.14-7.61-3.97-1.76-8.67-2.64-14.11-2.64h-26.4c-.4,0-.73.33-.73.73v58.06c0,.4.33.73.73.73h15.38c.4,0,.73-.33.73-.73v-14.1c0-.4.33-.73.73-.73h9.56c5.44,0,10.15-.89,14.11-2.68,3.97-1.79,7.01-4.31,9.14-7.57,2.13-3.26,3.19-7.18,3.19-11.78s-1.06-8.38-3.19-11.69ZM776.07,107.42c-1.76,1.5-4.39,2.25-7.91,2.25h-8.54c-.4,0-.73-.33-.73-.73v-15.89c0-.4.33-.73.73-.73h8.54c3.51,0,6.15.78,7.91,2.34,1.76,1.56,2.64,3.67,2.64,6.34s-.88,4.92-2.64,6.42Z"/>
      <path class="cls-3" d="M844.77,79.79v28.95c0,.68-.85.99-1.29.46l-24.68-29.87c-.14-.17-.34-.26-.56-.26h-12.79c-.4,0-.73.33-.73.73v58.06c0,.4.33.73.73.73h14.95c.4,0,.73-.33.73-.73v-28.97c0-.68.85-.99,1.29-.46l24.77,29.9c.14.17.34.26.56.26h12.79c.4,0,.73-.33.73-.73v-58.06c0-.4-.33-.73-.73-.73h-15.04c-.4,0-.73.33-.73.73Z"/>
      <path class="cls-3" d="M890.09,124.51v-44.71c0-.4-.33-.73-.73-.73h-15.38c-.4,0-.73.33-.73.73v58.06c0,.4.33.73.73.73h43.69c.4,0,.73-.33.73-.73v-11.89c0-.4-.33-.73-.73-.73h-26.86c-.4,0-.73-.33-.73-.73Z"/>
    </g>
  </g>
</svg>