<?xml version="1.0" encoding="UTF-8"?>
<svg id="Capa_2" data-name="Capa 2" xmlns="http://www.w3.org/2000/svg" viewBox="0 0 811.69 742.62">
  <defs>
    <style>
      .cls-1 {
        fill: #3244e2;
      }

      .cls-2 {
        fill: #5b53fa;
      }

      .cls-3 {
        fill: #4a3dff;
      }

      .cls-4 {
        fill: #112bbf;
      }

      .cls-5 {
        fill: #878bff;
      }

      .cls-6 {
        fill: #5a66f2;
      }

      .cls-7 {
        fill: #001fb8;
      }
    </style>
  </defs>
  <g id="isologo">
    <g id="sinergia-pbl">
      <path class="cls-7" d="M31.64,742.62c-6.27,0-12.27-.77-17.99-2.32-5.38-1.45-9.79-3.27-13.23-5.46-.39-.25-.52-.74-.34-1.16l6.28-14.2c.23-.51.84-.7,1.31-.41,3.18,1.92,6.79,3.51,10.84,4.8,4.43,1.4,8.84,2.11,13.24,2.11,3.03,0,5.42-.25,7.19-.76,1.76-.5,3.06-1.22,3.89-2.16.83-.94,1.24-2.05,1.24-3.35,0-1.66-.79-2.97-2.38-3.94-1.59-.97-3.66-1.8-6.21-2.49-2.56-.68-5.33-1.33-8.32-1.94-2.99-.61-6.03-1.42-9.13-2.43-3.1-1.01-5.91-2.34-8.43-4-2.52-1.66-4.56-3.82-6.11-6.48-1.55-2.66-2.32-6.01-2.32-10.05,0-4.47,1.22-8.54,3.67-12.21,2.45-3.67,6.16-6.63,11.13-8.86,4.97-2.23,11.17-3.35,18.59-3.35,4.97,0,9.85.56,14.64,1.68,4.49,1.05,8.49,2.59,12,4.61.4.23.56.73.39,1.16l-5.79,14.08c-.21.51-.81.71-1.29.45-3.3-1.77-6.56-3.08-9.79-3.94-3.53-.94-6.95-1.4-10.27-1.4-2.95,0-5.33.32-7.13.97s-3.1,1.48-3.89,2.49c-.79,1.01-1.19,2.09-1.19,3.24,0,1.73.79,3.08,2.38,4.05,1.58.97,3.64,1.77,6.16,2.38,2.52.61,5.31,1.24,8.37,1.89s6.11,1.46,9.13,2.43c3.03.97,5.82,2.27,8.37,3.89,2.56,1.62,4.63,3.75,6.21,6.37,1.58,2.63,2.38,5.93,2.38,9.89,0,4.39-1.24,8.45-3.73,12.16-2.49,3.71-6.21,6.68-11.18,8.92-4.97,2.23-11.2,3.35-18.69,3.35Z"/>
      <path class="cls-7" d="M75.07,740.18v-73.79c0-.51.41-.92.92-.92h19.55c.51,0,.92.41.92.92v73.79c0,.51-.41.92-.92.92h-19.55c-.51,0-.92-.41-.92-.92Z"/>
      <path class="cls-7" d="M162.6,666.39v36.79c0,.87-1.09,1.26-1.64.59l-31.37-37.97c-.18-.21-.44-.34-.71-.34h-16.25c-.51,0-.92.41-.92.92v73.79c0,.51.41.92.92.92h19.01c.51,0,.92-.41.92-.92v-36.82c0-.87,1.08-1.26,1.64-.59l31.48,38c.18.21.44.33.71.33h16.25c.51,0,.92-.41.92-.92v-73.79c0-.51-.41-.92-.92-.92h-19.11c-.51,0-.92.41-.92.92Z"/>
      <path class="cls-7" d="M219.87,723.54v-11.98c0-.51.41-.92.92-.92h31.76c.51,0,.92-.41.92-.92v-14.04c0-.51-.41-.92-.92-.92h-31.76c-.51,0-.92-.41-.92-.92v-10.79c0-.51.41-.92.92-.92h36.29c.51,0,.92-.41.92-.92v-14.79c0-.51-.41-.92-.92-.92h-57.37c-.51,0-.92.41-.92.92v73.79c0,.51.41.92.92.92h58.77c.51,0,.92-.41.92-.92v-14.79c0-.51-.41-.92-.92-.92h-37.7c-.51,0-.92-.41-.92-.92Z"/>
      <path class="cls-7" d="M318.58,741.11h20.66c.74,0,1.18-.83.76-1.45l-14.74-21.48c-.32-.46-.14-1.09.36-1.34,4.17-2.13,7.44-4.99,9.81-8.58,2.7-4.11,4.05-9.08,4.05-14.91s-1.35-10.64-4.05-14.86c-2.7-4.21-6.58-7.44-11.62-9.67-5.04-2.23-11.02-3.35-17.94-3.35h-33.55c-.51,0-.92.41-.92.92v73.79c0,.51.41.92.92.92h19.55c.51,0,.92-.41.92-.92v-18.25c0-.51.41-.92.92-.92h10.16c.31,0,.59.15.76.4l13.17,19.29c.17.25.46.4.76.4ZM314.64,685.3c2.23,1.98,3.35,4.67,3.35,8.05s-1.12,6.27-3.35,8.21c-2.23,1.94-5.58,2.92-10.05,2.92h-10.85c-.51,0-.92-.41-.92-.92v-20.3c0-.51.41-.92.92-.92h10.85c4.47,0,7.82.99,10.05,2.97Z"/>
      <path class="cls-7" d="M401.84,721.85c0,.37-.22.71-.56.86-.54.23-1.07.44-1.6.63-3.03,1.05-6.12,1.57-9.29,1.57s-6.07-.52-8.7-1.57c-2.63-1.04-4.88-2.52-6.75-4.43-1.87-1.91-3.33-4.2-4.38-6.86-1.05-2.66-1.57-5.58-1.57-8.75s.52-6.19,1.57-8.86c1.04-2.66,2.5-4.95,4.38-6.86,1.87-1.91,4.14-3.37,6.81-4.38,2.66-1.01,5.62-1.51,8.86-1.51,3.67,0,7.01.69,10,2.05,2.75,1.26,5.34,3.16,7.76,5.71.35.36.92.4,1.29.06l12.27-11.1c.37-.34.42-.92.09-1.3-3.58-4.13-8.03-7.32-13.35-9.57-5.62-2.38-11.96-3.57-19.02-3.57-6.2,0-11.85.96-16.96,2.86-5.12,1.91-9.56,4.61-13.34,8.1-3.78,3.5-6.72,7.66-8.81,12.48-2.09,4.83-3.13,10.12-3.13,15.88s1.04,11.06,3.13,15.88c2.09,4.83,5.01,8.99,8.75,12.48,3.74,3.49,8.14,6.2,13.18,8.1,5.04,1.91,10.59,2.86,16.64,2.86,5.47,0,11.04-.83,16.69-2.49,5.48-1.61,10.37-3.89,14.67-6.85.25-.18.4-.47.4-.78v-29.92c0-.51-.41-.92-.92-.92h-17.17c-.51,0-.92.41-.92.92v19.26Z"/>
      <path class="cls-7" d="M434.58,740.18v-73.79c0-.51.41-.92.92-.92h19.55c.51,0,.92.41.92.92v73.79c0,.51-.41.92-.92.92h-19.55c-.51,0-.92-.41-.92-.92Z"/>
      <path class="cls-7" d="M528.34,741.11h20.21c.67,0,1.12-.69.85-1.3l-32.68-73.79c-.15-.33-.48-.55-.85-.55h-19.87c-.37,0-.7.22-.85.55l-32.57,73.79c-.27.61.18,1.3.85,1.3h19.78c.38,0,.72-.23.86-.58l5.48-13.64c.14-.35.48-.58.86-.58h30.74c.38,0,.72.23.86.58l5.48,13.64c.14.35.48.58.86.58ZM514.98,709.37c.24.61-.2,1.27-.86,1.27h-16.68c-.65,0-1.1-.66-.86-1.27l8.34-20.78c.31-.77,1.41-.77,1.72,0"/>
      <path class="cls-3" d="M651.6,678.49c-2.7-4.21-6.58-7.44-11.62-9.67-5.04-2.23-11.02-3.35-17.94-3.35h-33.55c-.51,0-.92.41-.92.92v73.79c0,.51.41.92.92.92h19.55c.51,0,.92-.41.92-.92v-17.93c0-.51.41-.92.92-.92h12.15c6.92,0,12.89-1.14,17.94-3.4,5.04-2.27,8.92-5.47,11.62-9.62,2.7-4.14,4.05-9.13,4.05-14.97s-1.35-10.64-4.05-14.86ZM630.8,701.5c-2.23,1.91-5.58,2.86-10.05,2.86h-10.85c-.51,0-.92-.41-.92-.92v-20.2c0-.51.41-.92.92-.92h10.85c4.47,0,7.82.99,10.05,2.97,2.23,1.98,3.35,4.67,3.35,8.05s-1.12,6.25-3.35,8.16Z"/>
      <path class="cls-3" d="M718.11,666.39v36.79c0,.87-1.09,1.26-1.64.59l-31.37-37.97c-.18-.21-.44-.34-.71-.34h-16.25c-.51,0-.92.41-.92.92v73.79c0,.51.41.92.92.92h19.01c.51,0,.92-.41.92-.92v-36.82c0-.87,1.08-1.26,1.64-.59l31.48,38c.18.21.44.33.71.33h16.25c.51,0,.92-.41.92-.92v-73.79c0-.51-.41-.92-.92-.92h-19.11c-.51,0-.92.41-.92.92Z"/>
      <path class="cls-3" d="M775.71,723.22v-56.83c0-.51-.41-.92-.92-.92h-19.55c-.51,0-.92.41-.92.92v73.79c0,.51.41.92.92.92h55.53c.51,0,.92-.41.92-.92v-15.12c0-.51-.41-.92-.92-.92h-34.13c-.51,0-.92-.41-.92-.92Z"/>
    </g>
    <g id="logo">
      <g id="_Repetición_radial_" data-name="&amp;lt;Repetición radial&amp;gt;">
        <rect class="cls-3" x="309.46" y=".17" width="46.39" height="194.27" rx="3.52" ry="3.52" transform="translate(-.84 2.92) rotate(-.5)"/>
      </g>
      <g id="_Repetición_radial_-2" data-name="&amp;lt;Repetición radial&amp;gt;">
        <rect class="cls-2" x="443.53" y="-1.42" width="46.39" height="194.27" rx="3.52" ry="3.52" transform="translate(246.85 -326.95) rotate(50.93)"/>
      </g>
      <g id="_Repetición_radial_-3" data-name="&amp;lt;Repetición radial&amp;gt;">
        <rect class="cls-5" x="528.36" y="102.41" width="46.39" height="194.27" rx="3.52" ry="3.52" transform="translate(864.49 -296.54) rotate(102.36)"/>
      </g>
      <g id="_Repetición_radial_-4" data-name="&amp;lt;Repetición radial&amp;gt;">
        <rect class="cls-6" x="500.07" y="233.47" width="46.39" height="194.27" rx="3.52" ry="3.52" transform="translate(1138.76 396.03) rotate(153.78)"/>
      </g>
      <g id="_Repetición_radial_-5" data-name="&amp;lt;Repetición radial&amp;gt;">
        <rect class="cls-1" x="379.97" y="293.07" width="46.39" height="194.27" rx="3.52" ry="3.52" transform="translate(601.71 914.97) rotate(-154.79)"/>
      </g>
      <g id="_Repetición_radial_-6" data-name="&amp;lt;Repetición radial&amp;gt;">
        <rect class="cls-4" x="258.49" y="236.33" width="46.39" height="194.27" rx="3.52" ry="3.52" transform="translate(22.34 684.58) rotate(-103.36)"/>
      </g>
      <g id="_Repetición_radial_-7" data-name="&amp;lt;Repetición radial&amp;gt;">
        <rect class="cls-7" x="227.11" y="105.98" width="46.39" height="194.27" rx="3.52" ry="3.52" transform="translate(-63.94 274.93) rotate(-51.93)"/>
      </g>
    </g>
  </g>
</svg>