<svg width="80" height="80" viewBox="0 0 80 80" fill="none" xmlns="http://www.w3.org/2000/svg">
<path d="M72.7273 0H7.27273C3.25455 0 0 3.25455 0 7.27273V72.7273C0 76.7455 3.25455 80 7.27273 80H72.7273C76.7455 80 80 76.7455 80 72.7273V7.27273C80 3.25455 76.7455 0 72.7273 0ZM25.2873 65.4545H14.56V30.9382H25.2873V65.4545ZM19.8145 26.0036C16.3564 26.0036 13.56 23.2 13.56 19.7491C13.56 16.2982 16.36 13.4982 19.8145 13.4982C23.2618 13.4982 26.0655 16.3018 26.0655 19.7491C26.0655 23.2 23.2618 26.0036 19.8145 26.0036ZM65.4691 65.4545H54.7491V48.6691C54.7491 44.6655 54.6764 39.5164 49.1745 39.5164C43.5927 39.5164 42.7345 43.8764 42.7345 48.3782V65.4545H32.0145V30.9382H42.3055V35.6545H42.4509C43.8836 32.9418 47.3818 30.08 52.6 30.08C63.4618 30.08 65.4691 37.2291 65.4691 46.5236V65.4545Z" fill="white"/>
</svg>
