<svg width="80" height="64" viewBox="0 0 80 64" fill="none" xmlns="http://www.w3.org/2000/svg">
<path d="M68.3701 0C74.7932 0 80.0009 5.20686 80.001 11.6299V52.1592C80.0008 58.5822 74.7931 63.7891 68.3701 63.7891H11.6299C5.20694 63.789 0.000132561 58.5821 0 52.1592V11.6299C8.533e-05 5.20691 5.20691 8.62184e-05 11.6299 0H68.3701ZM49.4102 33.2959C43.8775 37.4452 36.2865 37.4779 30.7217 33.3936L30.5908 33.2959L7.04883 15.6387V52.1592C7.04896 54.6893 9.09973 56.7401 11.6299 56.7402H68.3701C70.9003 56.7402 72.952 54.6894 72.9521 52.1592V15.6387L49.4102 33.2959ZM11.6299 7.04883C10.4423 7.04887 9.35987 7.49999 8.5459 8.24121C8.9207 8.34826 9.28351 8.51983 9.61816 8.75781L9.69141 8.81152L34.8193 27.6572C37.8894 29.9597 42.1105 29.9596 45.1807 27.6572L70.3086 8.81152L70.3818 8.75781C70.7163 8.51993 71.0795 8.34827 71.4541 8.24121C70.6401 7.50011 69.5576 7.04883 68.3701 7.04883H11.6299Z" fill="white"/>
</svg>
