<svg width="80" height="83" viewBox="0 0 80 83" fill="none" xmlns="http://www.w3.org/2000/svg">
<path d="M18.2328 25.4771C18.6483 22.1909 22.9192 17.7245 26.3087 18.2201L26.3033 18.2146C29.6019 18.8415 32.2131 24.5189 33.6855 27.0718C34.7288 28.924 34.0513 30.8007 33.0783 31.5926C31.7655 32.6506 29.7128 34.1105 30.1435 35.5763C30.9092 38.1821 40.0001 47.273 44.4713 49.8574C46.1637 50.8356 47.391 48.2556 48.439 46.9338C49.2004 45.917 51.0786 45.3094 52.9266 46.313C55.6866 47.9203 58.2866 49.7883 60.691 51.8912C61.8917 52.8949 62.1735 54.3781 61.3415 55.9458C59.8761 58.7069 55.6375 62.3479 52.5608 61.6079C47.187 60.3159 25.4546 51.8912 18.474 27.484C18.0814 26.3293 18.1803 25.8928 18.2328 25.4771Z" fill="white"/>
<path fill-rule="evenodd" clip-rule="evenodd" d="M40 80C35.5505 80 33.0887 79.5225 29.0909 78.1818L21.4343 82.0102C16.5986 84.428 10.9091 80.9116 10.9091 75.5051V67.2727C3.07836 59.9709 0 51.5516 0 40C0 17.9086 17.9086 0 40 0C62.0913 0 80 17.9086 80 40C80 62.0913 62.0913 80 40 80ZM18.1818 64.1102L15.8689 61.9535C9.78498 56.2807 7.27273 49.9385 7.27273 40C7.27273 21.9252 21.9252 7.27273 40 7.27273C58.0749 7.27273 72.7273 21.9252 72.7273 40C72.7273 58.0749 58.0749 72.7273 40 72.7273C36.4156 72.7273 34.7345 72.4036 31.4035 71.2865L28.5399 70.3262L18.1818 75.5051V64.1102Z" fill="white"/>
</svg>
