<svg width="128" height="127" viewBox="0 0 128 127" fill="none" xmlns="http://www.w3.org/2000/svg">
<path d="M49.5037 0.00347078L39.6984 0.0888466C39.0542 0.0944557 38.5365 0.620049 38.5422 1.26279L38.9654 49.6493C38.971 50.292 39.4978 50.8085 40.142 50.8029L49.9472 50.7176C50.5914 50.712 51.1091 50.1864 51.1035 49.5436L50.6803 1.1571C50.6746 0.514361 50.1479 -0.00213835 49.5037 0.00347078Z" fill="#4A3DFF"/>
<path d="M102.724 12.8015L96.5438 5.20587C96.1378 4.70684 95.4031 4.63071 94.903 5.03583L57.2503 35.5335C56.7502 35.9386 56.6739 36.6716 57.0799 37.1706L63.2601 44.7663C63.6661 45.2653 64.4007 45.3415 64.9009 44.9363L102.554 14.4386C103.054 14.0335 103.13 13.3006 102.724 12.8015Z" fill="#5B53FA"/>
<path d="M125.869 62.2882L127.968 52.7315C128.105 52.1036 127.707 51.4831 127.078 51.3455L79.704 40.9878C79.0747 40.8502 78.4528 41.2477 78.3149 41.8755L76.216 51.4322C76.0781 52.0601 76.4764 52.6806 77.1057 52.8182L124.48 63.1759C125.109 63.3135 125.731 62.916 125.869 62.2882Z" fill="#878BFF"/>
<path d="M101.528 111.222L110.324 106.9C110.902 106.616 111.14 105.918 110.855 105.341L89.4282 61.9319C89.1436 61.3553 88.4443 61.118 87.8664 61.402L79.0697 65.7245C78.4918 66.0085 78.254 66.7062 78.5386 67.2828L99.9659 110.692C100.251 111.269 100.95 111.506 101.528 111.222Z" fill="#5A66F2"/>
<path d="M48.0083 122.722L56.8799 126.889C57.4628 127.163 58.1577 126.913 58.4321 126.332L79.0892 82.5524C79.3636 81.9708 79.1135 81.2775 78.5307 81.0037L69.659 76.8365C69.0762 76.5628 68.3812 76.8122 68.1068 77.3938L47.4498 121.173C47.1754 121.755 47.4254 122.448 48.0083 122.722Z" fill="#3244E2"/>
<path d="M5.62851 88.1494L7.89428 97.6682C8.04314 98.2935 8.67193 98.6801 9.29872 98.5316L56.4841 87.3505C57.1109 87.202 57.4984 86.5746 57.3495 85.9493L55.0837 76.4306C54.9349 75.8052 54.3061 75.4186 53.6793 75.5672L6.49388 86.7482C5.86709 86.8967 5.47965 87.5241 5.62851 88.1494Z" fill="#112BBF"/>
<path d="M6.29544 33.5344L0.249057 41.2365C-0.148186 41.7426 -0.0590717 42.4741 0.448098 42.8704L38.6285 72.7078C39.1356 73.1042 39.8688 73.0153 40.266 72.5093L46.3124 64.8071C46.7097 64.3011 46.6205 63.5696 46.1134 63.1732L7.93302 33.3358C7.42585 32.9395 6.69268 33.0284 6.29544 33.5344Z" fill="#001FB8"/>
</svg>
